<svg width="50" height="50" viewBox="0 0 50 50" fill="none" xmlns="http://www.w3.org/2000/svg">
<path d="M9.90135 26.8164L23.8066 39.8789C24.2856 40.3289 24.5251 40.5538 24.8074 40.6093C24.9346 40.6342 25.0654 40.6342 25.1926 40.6093C25.4749 40.5538 25.7144 40.3289 26.1934 39.8789L40.0986 26.8164C44.011 23.1412 44.4861 17.0932 41.1956 12.8521L40.5769 12.0547C36.6406 6.98116 28.7393 7.83203 25.9733 13.6273C25.5826 14.4459 24.4174 14.4459 24.0267 13.6273C21.2607 7.83203 13.3594 6.98117 9.42308 12.0547L8.80438 12.8521C5.51389 17.0932 5.989 23.1412 9.90135 26.8164Z" fill="#FF6D37" stroke="#FF6D37" stroke-width="4"/>
</svg>
