<svg width="50" height="50" viewBox="0 0 50 50" fill="none" xmlns="http://www.w3.org/2000/svg">
<path d="M29.2203 8.89477C30.5809 7.98775 31.2611 7.53424 32.0023 7.60763C32.7435 7.68102 33.3216 8.25914 34.4779 9.41537L40.5846 15.5221C41.7409 16.6784 42.319 17.2565 42.3924 17.9977C42.4658 18.7389 42.0123 19.4191 41.1052 20.7797L37.4041 26.3314C36.0838 28.3118 35.4237 29.302 34.9136 30.3674C34.6555 30.9067 34.4265 31.4594 34.2278 32.0232C33.835 33.1373 33.6017 34.3042 33.1349 36.6381L32.7171 38.7271C32.6881 38.8718 32.6737 38.9441 32.6603 38.9968C32.313 40.3596 30.7429 40.9939 29.5464 40.2547C29.5002 40.2261 29.4396 40.1841 29.3183 40.1001V40.1001C28.7461 39.704 28.46 39.506 28.1779 39.3067C21.3968 34.5164 15.4836 28.6032 10.6933 21.8221C10.494 21.54 10.296 21.2539 9.89986 20.6817V20.6817C9.81587 20.5604 9.77387 20.4998 9.74532 20.4536C9.00613 19.2571 9.6404 17.687 11.0032 17.3397C11.0559 17.3263 11.1282 17.3119 11.2729 17.2829L13.3619 16.8651C15.6958 16.3983 16.8627 16.165 17.9768 15.7722C18.5406 15.5735 19.0933 15.3445 19.6326 15.0864C20.698 14.5763 21.6882 13.9162 23.6686 12.5959L29.2203 8.89477Z" stroke="black" stroke-width="4.16667"/>
<path d="M8 42L17.8438 32.1562" stroke="black" stroke-width="4.16667" stroke-linecap="round"/>
</svg>
