<svg width="273" height="44" viewBox="0 0 273 44" fill="none" xmlns="http://www.w3.org/2000/svg">
<path d="M1 22.0273C1 10.4142 10.4142 1 22.0273 1H250.804C262.417 1 271.831 10.4142 271.831 22.0273C271.831 33.6403 262.417 43.0545 250.804 43.0545H22.0273C10.4142 43.0545 1 33.6403 1 22.0273Z" fill="white" fill-opacity="0.13"/>
<path d="M22.0273 1.21027H250.804V0.789727H22.0273V1.21027ZM250.804 42.8443H22.0273V43.2648H250.804V42.8443ZM22.0273 42.8443C10.5304 42.8443 1.21027 33.5242 1.21027 22.0273H0.789727C0.789727 33.7564 10.2981 43.2648 22.0273 43.2648V42.8443ZM271.621 22.0273C271.621 33.5242 262.301 42.8443 250.804 42.8443V43.2648C262.533 43.2648 272.041 33.7564 272.041 22.0273H271.621ZM250.804 1.21027C262.301 1.21027 271.621 10.5304 271.621 22.0273H272.041C272.041 10.2981 262.533 0.789727 250.804 0.789727V1.21027ZM22.0273 0.789727C10.2981 0.789727 0.789727 10.2981 0.789727 22.0273H1.21027C1.21027 10.5304 10.5304 1.21027 22.0273 1.21027V0.789727Z" fill="white"/>
<path d="M37.1646 18.7663L34.9105 20.0279V18.514L37.9216 16.7477H38.6954V28.7753H37.1646V18.7663ZM47.1871 19.3382C47.1871 20.1793 47.3329 21.0036 47.6245 21.811C47.9273 22.6185 48.3479 23.3362 48.8862 23.9642C49.4245 24.581 50.0413 25.0464 50.7366 25.3604L49.845 26.6053C49.0824 26.2352 48.4095 25.6857 47.8264 24.9567C47.2432 24.2278 46.7946 23.3867 46.4806 22.4334C46.1666 23.4652 45.7124 24.3736 45.1181 25.1586C44.5237 25.9324 43.834 26.5155 43.049 26.908L42.1238 25.6128C42.8303 25.2988 43.4527 24.8165 43.991 24.1661C44.5405 23.5044 44.9667 22.7531 45.2695 21.912C45.5723 21.0709 45.7237 20.213 45.7237 19.3382V16.9832H47.1871V19.3382ZM53.3439 29.7678H51.8468V15.8225H53.3439V29.7678ZM65.3884 19.9102H67.306V21.2391H65.3884V25.9324H63.908V15.8225H65.3884V19.9102ZM61.7885 16.8822C61.7997 18.699 61.2502 20.2578 60.1399 21.5587C59.0297 22.8596 57.4765 23.824 55.4803 24.4521L54.8579 23.1568C56.4167 22.697 57.6559 22.0353 58.5755 21.1718C59.5063 20.2971 60.039 19.3046 60.1736 18.1943H55.4467V16.8822H61.7885ZM65.9266 29.465H56.8933V24.8558H58.3737V28.1697H65.9266V29.465ZM74.2703 23.5941H68.0126V17.0505H74.2703V23.5941ZM69.4592 22.3157H72.8572V18.3289H69.4592V22.3157ZM78.0215 19.9606H79.9392V21.2896H78.0215V26.0333H76.558V15.8225H78.0215V19.9606ZM78.5935 29.465H69.5433V24.9904H70.99V28.1697H78.5935V29.465ZM91.6136 29.7509H90.2005V15.8225H91.6136V29.7509ZM88.8884 29.0612H87.4754V22.4166H86.0455C85.9782 23.7512 85.6811 24.8109 85.154 25.5959C84.6269 26.381 83.9596 26.7735 83.1522 26.7735C82.569 26.7735 82.0588 26.5772 81.6214 26.1847C81.1952 25.781 80.8588 25.209 80.6121 24.4689C80.3766 23.7175 80.2588 22.8428 80.2588 21.8447C80.2588 20.8466 80.3766 19.9775 80.6121 19.2373C80.8476 18.4971 81.184 17.9308 81.6214 17.5383C82.0588 17.1346 82.569 16.9327 83.1522 16.9327C83.9484 16.9327 84.6045 17.3084 85.1203 18.0598C85.6474 18.7999 85.9558 19.8205 86.0455 21.1213H87.4754V16.1084H88.8884V29.0612ZM83.1522 18.413C82.6812 18.413 82.3111 18.7158 82.0419 19.3214C81.7728 19.927 81.6382 20.7681 81.6382 21.8447C81.6382 22.9437 81.7728 23.7904 82.0419 24.3848C82.3111 24.9791 82.6812 25.2763 83.1522 25.2763C83.6344 25.2763 84.0101 24.9791 84.2792 24.3848C84.5484 23.7904 84.683 22.9437 84.683 21.8447C84.683 20.7569 84.5484 19.9158 84.2792 19.3214C84.0101 18.7158 83.6344 18.413 83.1522 18.413ZM108.074 28.0856H95.845V26.7567H101.194V23.8969H96.9384V22.6521H98.8898V18.3962H96.888V17.0841H106.981V18.3962H104.962V22.6521H106.947V23.8969H102.658V26.7567H108.074V28.0856ZM103.499 22.6521V18.3962H100.353V22.6521H103.499ZM119.328 24.4521H109.992V16.9664H119.211V18.2616H111.506V20.0279H118.891V21.3064H111.506V23.1736H119.328V24.4521ZM120.691 28.0183H108.461V26.7062H120.691V28.0183ZM132.13 17.4037H130.212V19.6578H132.062V20.8858H127.907V21.9793H133.257V23.2241H121.078V21.9793H126.427V20.8858H122.272V19.6578H124.123V17.4037H122.205V16.1757H132.13V17.4037ZM131.726 27.3454H124.005V28.4052H132.113V29.6164H122.575V26.2184H130.296V25.2932H122.541V24.1156H131.726V27.3454ZM128.732 19.6578V17.4037H125.586V19.6578H128.732ZM144.813 29.7678H143.333V15.8225H144.813V29.7678ZM140.692 22.2316H135.948V25.1418C137.159 25.1305 138.247 25.0913 139.212 25.024C140.176 24.9567 141.174 24.8334 142.206 24.6539L142.307 25.9492C141.219 26.1511 140.154 26.2856 139.111 26.3529C138.079 26.4202 136.907 26.4539 135.595 26.4539H134.451V20.9531H139.195V18.3626H134.434V17.0673H140.692V22.2316ZM152.4 16.6636C153.342 16.6636 154.189 16.8206 154.94 17.1346C155.703 17.4374 156.297 17.8691 156.723 18.4299C157.149 18.9906 157.362 19.641 157.362 20.3812C157.362 21.4017 156.97 22.2428 156.185 22.9045C155.411 23.5661 154.396 23.9586 153.14 24.082V26.7062H158.54V28.0183H146.31V26.7062H151.677V24.082C150.432 23.9586 149.423 23.5661 148.649 22.9045C147.875 22.2428 147.488 21.4017 147.488 20.3812C147.488 19.641 147.701 18.9906 148.127 18.4299C148.553 17.8691 149.137 17.4374 149.877 17.1346C150.628 16.8206 151.469 16.6636 152.4 16.6636ZM152.4 17.942C151.727 17.942 151.127 18.043 150.6 18.2448C150.073 18.4467 149.658 18.7326 149.355 19.1027C149.064 19.4728 148.918 19.899 148.918 20.3812C148.918 21.1326 149.243 21.7325 149.894 22.1811C150.544 22.6185 151.379 22.8372 152.4 22.8372C153.443 22.8372 154.29 22.6185 154.94 22.1811C155.602 21.7325 155.933 21.1326 155.933 20.3812C155.933 19.899 155.781 19.4728 155.478 19.1027C155.187 18.7326 154.772 18.4467 154.234 18.2448C153.695 18.043 153.084 17.942 152.4 17.942ZM173.201 24.1324H171.721V20.6672H169.298V19.3382H171.721V15.8225H173.201V24.1324ZM168.71 24.4521C170.123 24.4521 171.227 24.682 172.023 25.1418C172.831 25.6016 173.235 26.252 173.235 27.0931C173.235 27.9342 172.831 28.5846 172.023 29.0444C171.227 29.5042 170.123 29.7341 168.71 29.7341C167.296 29.7341 166.186 29.5042 165.379 29.0444C164.583 28.5846 164.184 27.9342 164.184 27.0931C164.184 26.252 164.583 25.6016 165.379 25.1418C166.186 24.682 167.296 24.4521 168.71 24.4521ZM168.71 25.6969C167.745 25.6969 166.994 25.8202 166.455 26.067C165.917 26.3025 165.648 26.6445 165.648 27.0931C165.648 27.5417 165.917 27.8893 166.455 28.136C166.994 28.3828 167.745 28.5061 168.71 28.5061C169.674 28.5061 170.425 28.3828 170.964 28.136C171.502 27.8893 171.771 27.5417 171.771 27.0931C171.771 26.6445 171.502 26.3025 170.964 26.067C170.425 25.8202 169.674 25.6969 168.71 25.6969ZM166.876 18.2953C166.876 19.17 167.162 19.9943 167.734 20.7681C168.306 21.5419 169.08 22.1026 170.055 22.4503L169.332 23.6783C168.603 23.4091 167.964 23.0166 167.414 22.5007C166.876 21.9736 166.455 21.3625 166.153 20.6672C165.85 21.4522 165.412 22.1419 164.84 22.7362C164.269 23.3194 163.59 23.7568 162.805 24.0483L162.014 22.8203C163.057 22.4391 163.876 21.8335 164.47 21.0036C165.065 20.1737 165.362 19.2709 165.362 18.2953V18.0766H162.485V16.7645H169.685V18.0766H166.876V18.2953ZM185.784 29.7678H184.303V15.8225H185.784V29.7678ZM181.662 22.2316H176.919V25.1418C178.13 25.1305 179.218 25.0913 180.182 25.024C181.146 24.9567 182.145 24.8334 183.176 24.6539L183.277 25.9492C182.189 26.1511 181.124 26.2856 180.081 26.3529C179.049 26.4202 177.877 26.4539 176.565 26.4539H175.421V20.9531H180.165V18.3626H175.405V17.0673H181.662V22.2316ZM197.727 21.4241H199.83V22.7362H197.727V29.7509H196.264V15.8225H197.727V21.4241ZM195.153 19.2878H187.23V17.9925H190.477V16.0243H191.957V17.9925H195.153V19.2878ZM191.234 20.2298C191.862 20.2298 192.428 20.37 192.933 20.6503C193.449 20.9195 193.853 21.3008 194.144 21.7942C194.436 22.2877 194.581 22.8484 194.581 23.4764C194.581 24.1044 194.436 24.6707 194.144 25.1754C193.853 25.6688 193.449 26.0557 192.933 26.3361C192.428 26.6053 191.862 26.7398 191.234 26.7398C190.595 26.7398 190.023 26.6053 189.518 26.3361C189.013 26.0557 188.615 25.6688 188.324 25.1754C188.032 24.682 187.886 24.1156 187.886 23.4764C187.886 22.8484 188.032 22.2877 188.324 21.7942C188.615 21.3008 189.013 20.9195 189.518 20.6503C190.034 20.37 190.606 20.2298 191.234 20.2298ZM191.234 21.5419C190.662 21.5419 190.197 21.7213 189.838 22.0802C189.479 22.4278 189.299 22.8932 189.299 23.4764C189.299 24.0596 189.479 24.5306 189.838 24.8894C190.197 25.2483 190.662 25.4277 191.234 25.4277C191.806 25.4277 192.266 25.2483 192.613 24.8894C192.972 24.5306 193.152 24.0596 193.152 23.4764C193.152 22.8932 192.972 22.4278 192.613 22.0802C192.266 21.7213 191.806 21.5419 191.234 21.5419ZM211.033 29.7678H209.587V22.3325H207.181V21.0204H209.587V15.8225H211.033V29.7678ZM206.39 22.1138H201.848V25.1418C203.004 25.1418 204.007 25.1137 204.86 25.0576C205.712 25.0016 206.575 24.8894 207.45 24.7212L207.551 26.0333C206.609 26.2127 205.673 26.3361 204.742 26.4034C203.822 26.4595 202.723 26.4875 201.445 26.4875H200.402V20.8186H204.961V18.3626H200.351V17.0673H206.39V22.1138ZM226.081 21.3232H228.1V22.6353H226.081V29.7173H224.601V15.8225H226.081V21.3232ZM222.582 17.3028C222.593 19.4223 222.106 21.3288 221.119 23.0222C220.132 24.7156 218.584 26.095 216.476 27.1604L215.618 25.9828C218.926 24.267 220.743 21.811 221.068 18.6149H216.308V17.3028H222.582ZM239.37 29.7509H237.89V15.8225H239.37V29.7509ZM235.4 17.3196C235.423 21.8615 233.343 25.1642 229.159 27.2277L228.352 25.9828C230.113 25.1193 231.442 24.0764 232.339 22.854C233.236 21.6316 233.752 20.2074 233.886 18.5812H229.042V17.3196H235.4Z" fill="white"/>
</svg>
