<svg width="50" height="50" viewBox="0 0 50 50" fill="none" xmlns="http://www.w3.org/2000/svg">
<path fill-rule="evenodd" clip-rule="evenodd" d="M32 20.5C32 26.8513 26.8513 32 20.5 32C14.1487 32 9 26.8513 9 20.5C9 14.1487 14.1487 9 20.5 9C26.8513 9 32 14.1487 32 20.5ZM29.8576 32.8576C27.2573 34.8298 24.0153 36 20.5 36C11.9396 36 5 29.0604 5 20.5C5 11.9396 11.9396 5 20.5 5C29.0604 5 36 11.9396 36 20.5C36 24.1032 34.7705 27.4192 32.7083 30.0514L44.8284 42.1716L42 45L29.8576 32.8576Z" fill="black"/>
</svg>
