<svg width="136" height="132" viewBox="0 0 136 132" fill="none" xmlns="http://www.w3.org/2000/svg">
<path fill-rule="evenodd" clip-rule="evenodd" d="M120.51 96.0311C120.51 93.5564 120.142 91.1674 119.459 88.9158C128.859 85.4982 135.573 76.485 135.573 65.9037C135.573 55.3224 128.859 46.3092 119.459 42.8916C120.142 40.6399 120.51 38.2509 120.51 35.7762C120.51 22.2571 109.55 11.2977 96.031 11.2977C93.0105 11.2977 90.1178 11.8448 87.4465 12.8453C83.307 5.19572 75.2121 0 65.9037 0C56.9891 0 49.1876 4.76527 44.9074 11.8875C43.1807 11.5014 41.3853 11.2977 39.5422 11.2977C26.0231 11.2977 15.0637 22.2571 15.0637 35.7762C15.0637 38.2509 15.4309 40.6399 16.1139 42.8916C6.7138 46.3092 0 55.3224 0 65.9037C0 70.2467 1.13101 74.3255 3.11456 77.8617C9.97604 70.5671 19.7169 66.0121 30.5217 66.0121C51.2986 66.0121 68.1415 82.8551 68.1415 103.632C68.1415 114.003 63.945 123.393 57.1575 130.199C59.8735 131.238 62.8221 131.807 65.9037 131.807C75.2121 131.807 83.3071 126.612 87.4466 118.962C90.1178 119.963 93.0105 120.51 96.031 120.51C109.55 120.51 120.51 109.55 120.51 96.0311Z" fill="#FF6D37"/>
<path fill-rule="evenodd" clip-rule="evenodd" d="M9.09962 115.248C8.88035 114.933 8.67434 114.605 8.48279 114.263L1.51041 101.829C-1.6781 96.1435 0.34646 88.9493 6.03239 85.7608C9.23825 83.9631 12.9236 83.8225 16.1001 85.0611C25.2641 76.4633 39.6652 76.6393 48.6149 85.589C57.7441 94.7182 57.7441 109.52 48.6149 118.649L46.3405 120.923C37.2113 130.052 22.41 130.052 13.2808 120.923C11.5643 119.207 10.1706 117.29 9.09962 115.248Z" fill="#FF6D37"/>
</svg>
